<?xml version="1.0" encoding="UTF-8"?>
<svg id="Capa_2" data-name="Capa 2" xmlns="http://www.w3.org/2000/svg" viewBox="0 0 1952.92 2000">
  <defs>
    <style>
      .cls-1 {
        fill: #fff;
      }
    </style>
  </defs>
  <g id="NEGATIVO">
    <g>
      <path class="cls-1" d="M886.48,961.29c.37,3.33,7.36,6.53,12.38,8.13.79,11.35-9,21.81-18.19,26.69-14.47,7.68-53.22-4.43-41.23,2.71l5.23,3.12c21.12,12.59,46.3,14.94,67.88,1.1,17.7-11.35,29.45-33.97,27.74-56.41-28.06-9.12-55.4.12-53.8,14.66Z"/>
      <path class="cls-1" d="M505.64,994.55c-8.19-4.43-17.65-15.33-16.97-27.52,11.05,1.53,15.87-7.27,13.16-10.49l-10.88-12.97c-13.41-4.7-29.76-4.01-43.1.41-2.44,29.31,13.38,54.51,40.4,63.06,19.44,6.15,42.5,2.98,58.74-11.26-15.96.69-27.34,6.34-41.36-1.24Z"/>
      <path class="cls-1" d="M1920.95,628.17c-19.62-75.78-43.44-131.04-52.11-150.48-31.67-71-109.66-240.08-290.38-362.12-44.5-30.05-114.11-70-209.32-98.27-27.14-7.3-64.31-17.3-91.77-17.3-24.42,0-42.35,8.02-53.27,23.84-12.14,17.58-12.28,44.44-.34,62.48,21.39,32.31,40.01,65.79,55.91,100.56,34.34,75.1,62.06,175.07,70.52,346.79,4.78,97.15,2.99,234.66-27.63,398.82-43.43-97.12-89.72-176.76-141.27-243-.69-.89-1.41-1.75-2.1-2.64l7.57-23.95c24.61-77.87,56.08-252.13-.96-354.26-16.86-30.2-46.54-47.51-81.43-47.51-6.34,0-12.81.59-19.25,1.77l-1.52.28-1.5.39c-79.14,20.56-163.58,86.14-225.87,175.41l-7.31,10.48c-50.17-15.27-101.86-23.21-153.2-23.21-14.33,0-28.85.61-43.15,1.81-35.73,3-70.98,9.64-105.65,19.8l-6.3-9.5c-40.32-60.8-92.27-110.84-154.41-148.73l-.69-.42-.71-.39c-24.91-13.9-57.74-29.86-90.78-29.86s-61.11,16.24-78.07,45.73c-11.01,19.15-17.4,38.74-22.53,55.6l-.59,1.96-.4,2.01c-9,45.02-12.22,87.94-9.85,131.21l.03.55c4.04,59.3,10.23,109.57,27.34,162.17l6.74,20.74c-9.18,11.34-18.18,22.97-26.93,34.97-49.06,67.28-91.01,140.64-128.24,224.28l-39.1,87.85c-5.51,13.48-11.03,29.77-15.23,48.59-5.03,22.51-6.83,42.71-7.2,59.29,3.15,66.69,15.6,132.56,38.04,201.36,46.53,142.68,130.22,275.9,242.01,385.27,92.04,90.04,318.91,274,649.39,279.37,270.08,4.39,461.14-113.05,521.75-151.43,207.17-131.21,307.09-305.98,351.75-386.29,19.36-34.82,66.64-124.31,102.49-249.1,32.93-114.61,43.76-215.62,46.62-291.2,2.93-70.96-.18-174.27-31.1-293.7ZM1258.61,63.23c-2.64-3.98-2.29-12.5-.12-15.63,10.52-15.23,74.8,3.47,107.23,12.09,215.74,67.23,377.66,223.98,464.44,433.97-83.05-49.98-175.86-66.03-269.04-45.65-63.54,14.66-117.99,41.73-169.14,85.58-.29-170.37-40.04-329.35-133.37-470.36ZM1092.58,304.03c23.26-4.24,44.86,3.84,56.68,25,44.46,79.61,26.2,230.73-2.41,321.27l-74.29-76.98c-53.62-47.64-112.92-84.69-182.07-110.41,47.79-68.48,121.93-138.04,202.09-158.87ZM233.41,372.44c5.04-16.58,10.34-32.26,18.77-46.92,24.08-41.88,71.84-22.74,112.22-.2,56.03,34.16,103.42,78.98,141.33,136.14-44.95,16.53-85.6,36.12-124.35,63.39-49.5,33.12-90.42,72.8-131.69,120.39-16.61-51.08-21.89-100.77-25.38-152.07-2.26-41.24,1.09-80.66,9.1-120.72ZM223.53,738.52c103.15-141.46,253.98-253.83,432.5-268.8,97.56-8.18,193.1,14.13,278.64,60.97,173.8,95.17,277.12,252.44,355.94,432.96-25.03-9.61-42.89-24.34-62.94-38.31l-92.31-80.85c-57.9-50.71-114.51-99.25-193.84-112.07-64.83-10.48-127.2,16.04-163.88,70.93-44.66,66.83-63.01,184.39-77.22,269.49-.75,4.5-5.44,10.25-8.33,10.53-2.89.28-7.35-5.76-7.82-9.28-11.6-87.36-28.07-211.55-77.99-280.17-34.14-46.94-87.64-71.74-145.62-66.03-129.18,12.73-215.47,134.81-318.23,205.52-13.75,8.33-26.08,16.04-42.71,21.76,34.52-77.54,74.47-148.97,123.82-216.64ZM1210.25,1030.27c-68.31,10.81-128.65,28.18-189.14,57.88-41.88,20.19-78.78,42.55-116.59,67.85-27.54-56.53-71.56-100.62-129.03-129.28,18.61-84.93,67.08-160.77,161.56-147.76,32.15,5.14,60.42,17.04,89.09,31.98l89.39,58.83,94.73,60.5ZM761.74,1225.68c-15.13,25.55-43.37,39.24-71.74,38.45-28.72-.8-56.19-15.53-69.89-42.06-11.54-22.35-5.7-48.06,16.66-60.85,33.31-19.05,75.91-19.68,108.83-.44,23.94,14,30.63,40.43,16.14,64.91ZM611.63,1025.4c-57.35,26.98-102.89,69.9-130.77,126.59-95.89-65.67-189.01-109.2-303.38-127.91l85.69-52.75,84.32-56.42c29.43-16.09,58.33-30.42,91.35-36.75,99.63-22.86,153.08,54.96,172.79,147.24ZM930.46,1958.07c-235.29-5.95-453.6-103.49-621.2-267.45-105.32-103.03-185.78-228.16-231.5-368.34-20.46-62.73-32.94-125.11-36.02-190.37l1.58-36.13c47.2-30.58,117.06-18.74,172.07-4.21,119.32,31.53,214.9,96.2,315.14,164.18l65.97,39.81c61.1,31.46,130.87,31.29,192.43.56l75.3-45.13c40.34-24.18,77.79-50.35,120.68-69.96,63.26-28.93,147.75-47.23,204.74-7.15,26.61,18.72,34.86,50.11,20.38,79.35-13.62,27.51-36.91,47.2-65.34,60.17-112.69,51.41-205.85,140.39-232.19,264.29-22.6,117.36,32.11,239.83,149.01,274.67-79.85-61.98-111.9-160.55-85.45-256.03,29.98-108.28,117.05-190.06,214.32-242.78,84.38-45.73,177.05-69.59,273.25-66.49,83.95,2.71,164.56,27.02,231.89,76.3,29.42,21.53,53.35,46.51,70.69,78.78-167.96,308.16-477.7,524.99-835.72,515.93ZM1809.52,1352.67c-18.59-28.58-38.49-53.57-65.45-76.51-54.5-45.42-117.39-72.07-186.86-82.72-88.38-12.57-175.04,2.81-258.34,42.99,34.54-77.11,53.3-155.38,61.61-238.54,34.95-26.03,73.05-41.95,115.51-51.96,109.92-25.9,226.8-6.4,322.45,53.46,37.01,23.16,67.19,51.49,92.2,87.82-15.02,91.07-41.63,178.78-81.12,265.47ZM1910.31,918.88c-37.33-37.3-75.41-63.28-122.51-83.23-139.26-57.08-297.05-38.18-419.52,50.36l19.07-233.64c32.86-31.22,70.34-52.73,113.18-68.08,103.55-37.1,216.94-31.29,316.69,14.82,23.64,10.93,43.19,24,63.44,40.4,25.7,91.22,36.43,184.58,29.64,279.37Z"/>
    </g>
  </g>
</svg>