<?xml version="1.0" encoding="UTF-8"?>
<svg id="Capa_2" data-name="Capa 2" xmlns="http://www.w3.org/2000/svg" viewBox="0 0 1172.58 1620.27">
  <defs>
    <style>
      .cls-1 {
        font-family: Sora-ExtraBold, Sora;
        font-size: 204.14px;
        font-variation-settings: 'wght' 800;
        font-weight: 700;
      }

      .cls-1, .cls-2, .cls-3 {
        fill: #fff;
      }

      .cls-4 {
        letter-spacing: -.03em;
      }

      .cls-3 {
        font-family: Manrope-Light, Manrope;
        font-size: 115.21px;
        font-variation-settings: 'wght' 300;
        font-weight: 300;
        letter-spacing: .06em;
      }

      .cls-5 {
        letter-spacing: -.05em;
      }
    </style>
  </defs>
  <g id="CN">
    <g>
      <path class="cls-2" d="M532.27,577.18c.22,2,4.42,3.92,7.43,4.88.47,6.82-5.4,13.1-10.92,16.03-8.69,4.61-31.95-2.66-24.76,1.63l3.14,1.87c12.68,7.56,27.8,8.97,40.76.66,10.63-6.81,17.68-20.39,16.65-33.87-16.85-5.48-33.26.07-32.3,8.8Z"/>
      <path class="cls-2" d="M303.6,597.15c-4.92-2.66-10.6-9.21-10.19-16.52,6.64.92,9.53-4.37,7.9-6.3l-6.53-7.79c-8.05-2.82-17.87-2.41-25.88.25-1.46,17.6,8.03,32.73,24.26,37.87,11.67,3.69,25.52,1.79,35.27-6.76-9.58.41-16.42,3.81-24.83-.74Z"/>
      <path class="cls-2" d="M1153.39,377.17c-11.78-45.5-26.08-78.68-31.29-90.35-19.01-42.63-65.85-144.15-174.35-217.43-26.72-18.04-68.51-42.03-125.68-59-16.29-4.38-38.61-10.39-55.1-10.39-14.66,0-25.43,4.82-31.98,14.31-7.29,10.55-7.38,26.68-.2,37.51,12.84,19.4,24.02,39.5,33.57,60.38,20.62,45.09,37.26,105.12,42.34,208.22,2.87,58.33,1.8,140.9-16.59,239.46-26.08-58.31-53.87-106.13-84.82-145.91-.42-.54-.84-1.05-1.26-1.58l4.54-14.38c14.78-46.76,33.67-151.39-.58-212.71-10.12-18.13-27.95-28.53-48.89-28.53-3.81,0-7.69.36-11.56,1.06l-.91.17-.9.23c-47.52,12.35-98.21,51.72-135.62,105.32l-4.39,6.29c-30.12-9.17-61.16-13.93-91.98-13.93-8.61,0-17.32.37-25.91,1.09-21.45,1.8-42.62,5.79-63.43,11.89l-3.78-5.7c-24.21-36.5-55.4-66.55-92.71-89.3l-.41-.25-.42-.24c-14.96-8.35-34.67-17.93-54.51-17.93s-36.69,9.75-46.88,27.46c-6.61,11.5-10.45,23.26-13.52,33.38l-.36,1.18-.24,1.21c-5.4,27.03-7.34,52.8-5.91,78.78l.02.33c2.42,35.61,6.14,65.79,16.41,97.37l4.05,12.45c-5.51,6.81-10.91,13.79-16.17,21-29.46,40.4-54.65,84.45-77,134.66l-23.48,52.75c-3.31,8.1-6.62,17.88-9.15,29.17-3.02,13.52-4.1,25.64-4.32,35.6,1.89,40.04,9.36,79.59,22.84,120.9,27.94,85.67,78.19,165.66,145.31,231.32,55.26,54.06,191.48,164.52,389.91,167.74,162.16,2.63,276.88-67.88,313.27-90.92,124.39-78.78,184.38-183.72,211.2-231.94,11.63-20.9,40.01-74.64,61.54-149.56,19.77-68.81,26.27-129.46,27.99-174.84,1.76-42.61-.11-104.64-18.67-176.34ZM755.7,37.97c-1.58-2.39-1.37-7.5-.07-9.39,6.31-9.14,44.91,2.08,64.38,7.26,129.54,40.37,226.76,134.48,278.86,260.57-49.86-30.01-105.59-39.65-161.54-27.41-38.15,8.8-70.85,25.06-101.56,51.39-.17-102.29-24.04-197.75-80.08-282.41ZM656.01,182.55c13.96-2.54,26.93,2.3,34.03,15.01,26.7,47.8,15.73,138.54-1.44,192.9l-44.61-46.22c-32.2-28.61-67.8-50.85-109.32-66.29,28.69-41.12,73.21-82.88,121.34-95.39ZM140.15,223.62c3.03-9.96,6.21-19.37,11.27-28.17,14.46-25.15,43.13-13.65,67.38-.12,33.64,20.51,62.1,47.42,84.86,81.74-26.99,9.93-51.4,21.69-74.66,38.06-29.72,19.89-54.29,43.71-79.07,72.28-9.97-30.67-13.14-60.51-15.24-91.31-1.36-24.76.66-48.43,5.46-72.49ZM134.21,443.43c61.94-84.94,152.49-152.41,259.68-161.39,58.58-4.91,115.94,8.48,167.3,36.61,104.35,57.14,166.39,151.57,213.71,259.96-15.03-5.77-25.75-14.61-37.79-23l-55.43-48.54c-34.76-30.45-68.75-59.59-116.39-67.29-38.92-6.29-76.38,9.63-98.4,42.59-26.81,40.13-37.84,110.71-46.37,161.81-.45,2.7-3.27,6.16-5,6.32-1.74.17-4.42-3.46-4.7-5.57-6.97-52.45-16.86-127.02-46.82-168.22-20.5-28.18-52.62-43.08-87.44-39.65-77.57,7.64-129.38,80.94-191.07,123.4-8.25,5-15.66,9.63-25.64,13.07,20.72-46.56,44.72-89.45,74.35-130.08ZM726.67,618.6c-41.02,6.49-77.24,16.92-113.56,34.76-25.15,12.12-47.3,25.55-70.01,40.74-16.53-33.94-42.97-60.41-77.47-77.62,11.17-50.99,40.28-96.53,97.01-88.72,19.3,3.09,36.28,10.23,53.49,19.2l53.67,35.32,56.88,36.33ZM457.37,735.93c-9.08,15.34-26.04,23.56-43.08,23.08-17.24-.48-33.74-9.33-41.97-25.26-6.93-13.42-3.42-28.86,10-36.54,20-11.44,45.58-11.82,65.34-.26,14.38,8.4,18.39,24.28,9.69,38.97ZM367.24,615.67c-34.43,16.2-61.78,41.97-78.52,76.01-57.58-39.43-113.49-65.57-182.16-76.8l51.45-31.67,50.63-33.87c17.67-9.66,35.02-18.26,54.85-22.07,59.82-13.72,91.91,33,103.75,88.41ZM558.67,1175.68c-141.28-3.58-272.35-62.14-372.99-160.59-63.24-61.86-111.55-137-139-221.16-12.28-37.67-19.78-75.12-21.63-114.3l.95-21.69c28.34-18.36,70.29-11.25,103.31-2.53,71.64,18.93,129.03,57.76,189.22,98.58l39.61,23.9c36.68,18.89,78.58,18.79,115.54.34l45.21-27.1c24.22-14.52,46.71-30.23,72.46-42.01,37.98-17.37,88.71-28.36,122.93-4.29,15.98,11.24,20.93,30.09,12.24,47.64-8.18,16.52-22.16,28.34-39.23,36.13-67.66,30.87-123.6,84.3-139.41,158.69-13.57,70.47,19.28,144,89.47,164.92-47.94-37.21-67.19-96.4-51.31-153.73,18-65.01,70.28-114.12,128.68-145.77,50.66-27.46,106.31-41.78,164.06-39.92,50.41,1.63,98.8,16.23,139.23,45.81,17.66,12.92,32.03,27.93,42.44,47.3-100.85,185.03-286.82,315.22-501.79,309.78ZM1086.48,812.17c-11.16-17.16-23.11-32.17-39.3-45.94-32.72-27.27-70.48-43.27-112.2-49.67-53.07-7.55-105.1,1.69-155.12,25.82,20.74-46.3,32-93.3,36.99-143.23,20.98-15.63,43.86-25.19,69.36-31.2,66-15.55,136.18-3.84,193.61,32.1,22.22,13.91,40.34,30.92,55.36,52.73-9.02,54.68-25,107.34-48.71,159.39ZM1147,551.72c-22.41-22.4-45.28-37.99-73.56-49.98-83.62-34.27-178.36-22.92-251.89,30.24l11.45-140.28c19.73-18.75,42.24-31.66,67.96-40.88,62.17-22.28,130.26-18.78,190.15,8.9,14.19,6.56,25.93,14.41,38.09,24.26,15.43,54.77,21.87,110.83,17.8,167.74Z"/>
    </g>
    <text class="cls-1" transform="translate(37.8605 1437.7129)"><tspan x="0" y="0">MA</tspan><tspan class="cls-5" x="362.97" y="0">P</tspan><tspan class="cls-4" x="489.95" y="0">A</tspan><tspan x="644.48" y="0">CHE</tspan></text>
    <text class="cls-3" transform="translate(166.5127 1590.8857)"><tspan x="0" y="0">MEDIA STUDIO</tspan></text>
  </g>
</svg>